<mxfile host="app.diagrams.net" modified="2021-01-08T15:08:09.183Z" agent="5.0 (Macintosh; Intel Mac OS X 11_1_0) AppleWebKit/537.36 (KHTML, like Gecko) Chrome/87.0.4280.88 Safari/537.36" etag="G6gv0UjP6iFFXHBliS-_" version="13.9.2" type="github">
  <diagram id="CNHFkyzPBiYwEVjuzl6j" name="Page-1">
    <mxGraphModel dx="1186" dy="678" grid="1" gridSize="10" guides="1" tooltips="1" connect="1" arrows="1" fold="1" page="1" pageScale="1" pageWidth="827" pageHeight="1169" math="0" shadow="0">
      <root>
        <mxCell id="0" />
        <mxCell id="1" parent="0" />
        <mxCell id="fwcLu98WzW9i2q9PPSWR-16" value="" style="rounded=0;whiteSpace=wrap;html=1;fillColor=#f8cecc;strokeColor=#b85450;" vertex="1" parent="1">
          <mxGeometry x="120" y="110" width="520" height="420" as="geometry" />
        </mxCell>
        <mxCell id="fwcLu98WzW9i2q9PPSWR-5" value="Application Database&lt;br&gt;alarm-db.davidlab.ch&lt;br&gt;188.34.195.71" style="fontColor=#0066CC;verticalAlign=top;verticalLabelPosition=bottom;labelPosition=center;align=center;html=1;outlineConnect=0;fillColor=#CCCCCC;strokeColor=#6881B3;gradientColor=none;gradientDirection=north;strokeWidth=2;shape=mxgraph.networks.server_storage;" vertex="1" parent="1">
          <mxGeometry x="331" y="370" width="105" height="105" as="geometry" />
        </mxCell>
        <mxCell id="fwcLu98WzW9i2q9PPSWR-6" value="App-Instance&lt;br&gt;alarm2.davidlab.ch&lt;br&gt;157.90.27.237" style="fontColor=#0066CC;verticalAlign=top;verticalLabelPosition=bottom;labelPosition=center;align=center;html=1;outlineConnect=0;fillColor=#CCCCCC;strokeColor=#6881B3;gradientColor=none;gradientDirection=north;strokeWidth=2;shape=mxgraph.networks.web_server;" vertex="1" parent="1">
          <mxGeometry x="530" y="310" width="105" height="105" as="geometry" />
        </mxCell>
        <mxCell id="fwcLu98WzW9i2q9PPSWR-7" value="App-Instance&lt;br&gt;alarm1.davidlab.ch&lt;br&gt;135.181.152.43" style="fontColor=#0066CC;verticalAlign=top;verticalLabelPosition=bottom;labelPosition=center;align=center;html=1;outlineConnect=0;fillColor=#CCCCCC;strokeColor=#6881B3;gradientColor=none;gradientDirection=north;strokeWidth=2;shape=mxgraph.networks.web_server;" vertex="1" parent="1">
          <mxGeometry x="130" y="310" width="105" height="105" as="geometry" />
        </mxCell>
        <mxCell id="fwcLu98WzW9i2q9PPSWR-8" value="Load-balancer&lt;br&gt;alarm.davidlab.ch&lt;br&gt;116.203.231.162" style="fontColor=#0066CC;verticalAlign=top;verticalLabelPosition=bottom;labelPosition=center;align=center;html=1;outlineConnect=0;fillColor=#CCCCCC;strokeColor=#6881B3;gradientColor=none;gradientDirection=north;strokeWidth=2;shape=mxgraph.networks.proxy_server;" vertex="1" parent="1">
          <mxGeometry x="331" y="170" width="105" height="105" as="geometry" />
        </mxCell>
        <mxCell id="fwcLu98WzW9i2q9PPSWR-9" value="" style="endArrow=classic;html=1;exitX=0;exitY=0.5;exitDx=0;exitDy=0;exitPerimeter=0;entryX=0.5;entryY=0;entryDx=0;entryDy=0;entryPerimeter=0;" edge="1" parent="1" source="fwcLu98WzW9i2q9PPSWR-8" target="fwcLu98WzW9i2q9PPSWR-7">
          <mxGeometry width="50" height="50" relative="1" as="geometry">
            <mxPoint x="360" y="270" as="sourcePoint" />
            <mxPoint x="410" y="220" as="targetPoint" />
          </mxGeometry>
        </mxCell>
        <mxCell id="fwcLu98WzW9i2q9PPSWR-10" value="" style="endArrow=classic;html=1;exitX=0.88;exitY=0.5;exitDx=0;exitDy=0;exitPerimeter=0;entryX=0.5;entryY=0;entryDx=0;entryDy=0;entryPerimeter=0;" edge="1" parent="1" source="fwcLu98WzW9i2q9PPSWR-8" target="fwcLu98WzW9i2q9PPSWR-6">
          <mxGeometry width="50" height="50" relative="1" as="geometry">
            <mxPoint x="568.5" y="182.5" as="sourcePoint" />
            <mxPoint x="420" y="310" as="targetPoint" />
          </mxGeometry>
        </mxCell>
        <mxCell id="fwcLu98WzW9i2q9PPSWR-11" value="" style="endArrow=classic;html=1;exitX=0;exitY=0.5;exitDx=0;exitDy=0;exitPerimeter=0;entryX=0.88;entryY=0.5;entryDx=0;entryDy=0;entryPerimeter=0;" edge="1" parent="1" source="fwcLu98WzW9i2q9PPSWR-6" target="fwcLu98WzW9i2q9PPSWR-5">
          <mxGeometry width="50" height="50" relative="1" as="geometry">
            <mxPoint x="398.5" y="370" as="sourcePoint" />
            <mxPoint x="250" y="497.5" as="targetPoint" />
          </mxGeometry>
        </mxCell>
        <mxCell id="fwcLu98WzW9i2q9PPSWR-12" value="" style="endArrow=classic;html=1;exitX=0.88;exitY=0.5;exitDx=0;exitDy=0;exitPerimeter=0;entryX=0;entryY=0.5;entryDx=0;entryDy=0;entryPerimeter=0;" edge="1" parent="1" source="fwcLu98WzW9i2q9PPSWR-7" target="fwcLu98WzW9i2q9PPSWR-5">
          <mxGeometry width="50" height="50" relative="1" as="geometry">
            <mxPoint x="286.6" y="415" as="sourcePoint" />
            <mxPoint x="180.00000000000009" y="565" as="targetPoint" />
          </mxGeometry>
        </mxCell>
        <mxCell id="fwcLu98WzW9i2q9PPSWR-17" value="&lt;font style=&quot;font-size: 18px&quot;&gt;Hetzner Cloud&lt;/font&gt;" style="text;html=1;strokeColor=none;fillColor=none;align=center;verticalAlign=middle;whiteSpace=wrap;rounded=0;" vertex="1" parent="1">
          <mxGeometry x="320" y="120" width="120" height="20" as="geometry" />
        </mxCell>
      </root>
    </mxGraphModel>
  </diagram>
</mxfile>
